<?xml version="1.0" encoding="UTF-8"?><svg id="Layer_2" xmlns="http://www.w3.org/2000/svg" viewBox="0 0 249.67 19.73"><defs><style>.cls-1{fill:#fff;}</style></defs><g id="Layer_1-2"><path class="cls-1" d="M125.42,19.7c.41-1.2.79-2.31,1.17-3.42.83-2.42,1.66-4.84,2.47-7.27.12-.35.22-.58.68-.58,8.36.01,16.73.01,25.09.01.07,0,.13.02.4.07-.82.47-1.51.87-2.25,1.3.27.22.5.4.72.58,1.11.93,1.43,2.02,1.02,3.41-.49,1.63-1.63,2.69-3.06,3.49-1.82,1.03-3.81,1.61-5.86,1.88-2.13.28-4.29.47-6.44.51-4.5.08-9,.04-13.5.05-.11,0-.22-.01-.44-.02ZM134.05,16.23c.12.07.16.11.2.11,2.77-.04,5.54-.01,8.3-.15,1.14-.05,2.29-.39,3.23-1.15,1.27-1.03,1.1-2.45-.42-3.02-.75-.28-1.58-.42-2.39-.45-1.75-.07-3.5-.03-5.25-.03-.68,0-1.53-.2-1.99.12-.46.32-.53,1.19-.76,1.83-.32.91-.62,1.83-.93,2.72Z"/><path class="cls-1" d="M113.31,19.69c.65-1.96,1.28-3.84,1.95-5.82-.32,0-.54,0-.76,0-3.66,0-7.32.01-10.97-.01-.52,0-.76.14-.92.64-.49,1.55-1.02,3.1-1.57,4.63-.08.22-.36.53-.55.53-2.31.04-4.62.02-7,.02.09-.29.17-.57.27-.84,1.04-3.04,2.08-6.09,3.14-9.12.45-1.29.47-1.28,1.8-1.28,2,0,3.99,0,6.05,0-.25.69-.47,1.31-.73,2.02.34.02.56.04.77.04,3.63,0,7.27-.01,10.9.02.55,0,.8-.16.97-.68.45-1.4.47-1.39,1.91-1.39,1.73,0,3.45,0,5.18,0,.24,0,.49,0,.83,0-.62,1.8-1.21,3.51-1.79,5.22-.62,1.82-1.23,3.65-1.89,5.46-.08.23-.4.54-.61.54-2.29.04-4.58.02-6.98.02Z"/><path class="cls-1" d="M41.47,8.44c-.27.94-.54,1.76-.73,2.59-.46,2.12.42,3.89,2.43,4.68.87.34,1.84.53,2.77.59,1.56.1,3.14,0,4.7.04.48,0,.68-.17.82-.6.75-2.26,1.52-4.51,2.31-6.75.08-.22.36-.52.54-.52,2.32-.04,4.63-.02,7.01-.02-.04.19-.05.34-.09.47-1.16,3.41-2.33,6.82-3.48,10.23-.13.38-.3.55-.72.55-4.91-.03-9.82,0-14.73-.1-1.89-.04-3.73-.54-5.45-1.36-3.18-1.51-4.37-4.1-3.48-7.51q.59-2.27,2.91-2.27h5.17Z"/><path class="cls-1" d="M186.7,8.44c-.36,1.04-.65,1.94-1.01,2.82-.06.16-.44.26-.67.26-2.11.02-4.23.01-6.34.01-3.45,0-6.91,0-10.36,0h-.78c-.35,1.51.28,3,1.58,3.83,1.06.67,2.24.97,3.49.97,3.48,0,6.95,0,10.43,0,.27,0,.53,0,.93,0-.38,1.12-.7,2.13-1.09,3.11-.06.16-.5.24-.76.24-3.77.01-7.55,0-11.32.01-1.94,0-3.86-.2-5.71-.78-.82-.26-1.64-.56-2.39-.97-2.73-1.45-3.75-3.8-2.99-6.79.18-.7.48-1.37.69-2.06.16-.52.47-.67,1.01-.67,8.16.02,16.32.01,24.48.01h.81Z"/><path class="cls-1" d="M221.1,8.44h.84c5.86,0,11.72-.01,17.58,0,1.68,0,3.28.44,4.75,1.27,1.72.98,2.18,2.46,1.42,4.29-.58,1.38-1.6,2.36-2.85,3.11-2.26,1.35-4.76,2.09-7.34,2.32-2.82.25-5.67.23-8.5.26-3.22.04-6.45,0-9.78,0,.37-1.09.7-2.13,1.1-3.16.06-.14.46-.21.7-.21,4.2-.01,8.41.04,12.61-.04,1.34-.03,2.7-.32,4.01-.64.57-.14,1.14-.58,1.55-1.03.78-.86.59-1.94-.46-2.44-.72-.34-1.55-.56-2.34-.61-2.08-.12-4.19.02-6.26-.2-1.63-.17-3.24-.63-4.82-1.09-.9-.26-1.65-.85-2.21-1.87Z"/><path class="cls-1" d="M3.93,8.47c.29-.01.5-.03.72-.03,5.91,0,11.82-.02,17.72,0,1.63,0,3.19.43,4.62,1.24,1.79,1,2.27,2.51,1.45,4.39-.68,1.55-1.9,2.59-3.36,3.34-2.94,1.5-6.1,2.21-9.38,2.25-5.04.07-10.09.04-15.13.06-.15,0-.31-.02-.56-.04.36-1.07.68-2.11,1.07-3.11.06-.16.5-.24.76-.24,4.18-.01,8.36.04,12.54-.04,1.36-.03,2.74-.33,4.07-.65.55-.13,1.1-.57,1.49-1,.78-.85.6-1.95-.43-2.44-.72-.34-1.55-.57-2.34-.61-2.08-.12-4.18-.05-6.27-.17-1.77-.11-3.51-.44-5.13-1.23-.75-.37-1.44-.83-1.85-1.71Z"/><path class="cls-1" d="M73.61,8.44c-.23.71-.41,1.29-.63,1.97.39,0,.7,0,1,0,1.86,0,3.73,0,5.59,0,1.94,0,3.73-.47,5.23-1.78.12-.11.32-.18.49-.18,2.57-.01,5.13,0,7.86,0-.27.35-.45.62-.66.85-1.48,1.6-3.36,2.53-5.39,3.19-2.58.84-5.22,1.35-7.96,1.29-2.23-.04-4.45,0-6.68-.02-.49,0-.72.15-.87.62-.52,1.59-1.07,3.18-1.65,4.75-.08.22-.37.52-.56.52-2.31.04-4.63.02-7.02.02.08-.26.14-.49.22-.72,1.12-3.28,2.25-6.56,3.34-9.85.17-.52.41-.7.96-.69,1.98.04,3.95.01,5.93.01.22,0,.45,0,.8,0Z"/><path class="cls-1" d="M148.09,7.34c.36-.34.65-.56.87-.83.73-.91.58-1.96-.47-2.45-.78-.36-1.68-.6-2.54-.63-2.34-.09-4.68-.03-7.02-.05-.4,0-.55.16-.66.51-.32,1.02-.66,2.03-1.03,3.02-.07.18-.32.41-.48.41-2.34.03-4.67.02-7.09.02.35-1.03.68-1.99,1-2.95.43-1.26.88-2.52,1.29-3.8.13-.4.29-.57.75-.57,5.34.02,10.68-.03,16.02.04,2.23.03,4.43.41,6.51,1.28,1.13.48,2.18,1.11,2.48,2.42.3,1.34-.31,2.43-1.1,3.43-.08.1-.28.14-.42.14-2.66,0-5.31,0-8.09,0Z"/><path class="cls-1" d="M66.55,7.34c.7-2.06,1.36-4.01,2.02-5.96q.46-1.36,1.88-1.36c5.05,0,10.09-.02,15.14.02,1.92.01,3.81.36,5.57,1.11.82.35,1.63.84,2.27,1.45,1.42,1.33,1.09,3.16.43,4.53-.05.11-.29.2-.44.2-2.54.01-5.09,0-7.62,0-.02-.07-.05-.12-.04-.15.85-2.14-.59-3.62-2.68-3.75-2.45-.16-4.91-.07-7.36-.06-.18,0-.44.28-.51.48-.37,1-.68,2.02-1.05,3.02-.07.19-.31.44-.47.44-2.34.03-4.68.02-7.14.02Z"/><path class="cls-1" d="M98.08,7.34c.99-1.56,2.18-2.74,3.58-3.69,2.91-1.98,6.18-3.05,9.64-3.46,1.75-.21,3.53-.15,5.3-.16,3.34-.02,6.68,0,10.02,0,.25,0,.49,0,.83,0-.39,1.14-.76,2.21-1.12,3.27-.41,1.2-.81,2.4-1.25,3.59-.07.18-.31.42-.48.42-2.34.03-4.68.02-7.1.02.45-1.33.87-2.61,1.33-3.98-1.48,0-2.87.05-4.25-.01-2.11-.09-4.15.2-5.96,1.3-1.03.63-1.9,1.51-2.85,2.27-.2.16-.42.4-.64.41-2.31.03-4.62.02-7.07.02Z"/><path class="cls-1" d="M219.79.03c-.36,1.08-.66,2.05-1.04,2.99-.07.18-.43.35-.66.35-2.84.02-5.68.04-8.52,0-.61,0-.87.19-1.04.76-.26.94-.6,1.85-.95,2.76-.07.19-.35.42-.54.42-2.32.03-4.63.02-7.04.02.44-1.32.87-2.59,1.31-3.94h-9.82c.38-1.12.73-2.15,1.1-3.18.03-.09.2-.16.32-.18.18-.03.36-.01.54-.01,8.5,0,17,0,25.49,0h.85Z"/><path class="cls-1" d="M32.45.03c-.38,1.09-.71,2.12-1.11,3.12-.06.15-.45.23-.69.23-4.29.01-8.59-.03-12.88.04-1.18.02-2.37.31-3.54.56-.47.1-.92.4-1.31.7-.91.71-1.02,1.62-.35,2.61H3.63c-.04-.82.26-1.54.65-2.22.91-1.59,2.36-2.56,4-3.25C10.96.69,13.76.05,16.68.03c5-.02,10,0,14.99,0,.23,0,.45,0,.77,0Z"/><path class="cls-1" d="M229.74,7.3h-8.87c-.04-.94.31-1.71.77-2.45.74-1.19,1.82-2.02,3.05-2.64,2.7-1.35,5.58-2.1,8.57-2.16,5.29-.1,10.58-.03,15.87-.03.13,0,.27.01.53.03-.38,1.08-.73,2.12-1.13,3.13-.05.13-.42.19-.63.19-4.36.01-8.72-.03-13.08.03-1.09.02-2.19.32-3.27.52-.28.05-.56.2-.81.34-1.33.71-1.66,1.7-1,3.03Z"/><path class="cls-1" d="M189.57.01c-.38,1.09-.69,2.08-1.08,3.04-.07.17-.47.29-.72.29-3.48.02-6.96.05-10.43,0-3.3-.04-6.03,1.07-8.09,3.71-.1.13-.28.27-.43.27-2.45.02-4.89.01-7.52.01.46-.6.81-1.09,1.2-1.54,2.2-2.49,5.06-3.86,8.16-4.81,2.14-.65,4.31-1.02,6.57-.99,3.84.05,7.68.01,11.52.01h.81Z"/><path class="cls-1" d="M207.05,8.51c-.68,1.99-1.36,3.96-2.03,5.93-.54,1.58-1.07,3.17-1.65,4.75-.08.21-.38.48-.59.48-2.22.03-4.45.02-6.68.01-.09,0-.17-.04-.32-.08.44-1.26.87-2.49,1.3-3.73.78-2.29,1.57-4.58,2.34-6.88.11-.32.21-.55.63-.55,2.23.02,4.45.01,6.68.01.08,0,.17.03.31.06Z"/><path class="cls-1" d="M64.28.02c-.81,2.39-1.59,4.71-2.4,7.01-.05.14-.32.3-.5.3-2.31.02-4.63.01-7,.01.04-.2.06-.37.12-.52.71-2.1,1.43-4.2,2.17-6.29.07-.2.32-.49.49-.49,2.33-.03,4.67-.02,7.13-.02Z"/><path class="cls-1" d="M44.38.02c-.81,2.39-1.58,4.68-2.37,6.97-.05.15-.27.33-.41.33-2.33.02-4.66.01-7.09.01.44-1.3.85-2.51,1.27-3.73.36-1.05.7-2.1,1.08-3.14.07-.18.31-.42.48-.42,2.31-.03,4.63-.02,7.05-.02Z"/></g></svg>