<?xml version="1.0" encoding="UTF-8"?>
<svg id="Layer_2" xmlns="http://www.w3.org/2000/svg" viewBox="0 0 161.04 132.87">
  <defs>
    <style>
      .cls-1 {
        fill: #fff;
        stroke-width: 0px;
      }
    </style>
  </defs>
  <g id="Layer_1-2">
    <path class="cls-1" d="M0,1.37h23.57v67.23h-9.51c-7.76,0-14.06-6.29-14.06-14.06V1.37Z" />
    <path class="cls-1"
      d="M161.04,0v23.37c-2.32-.27-3.96-.41-5.88-.41-10.52,0-17.76,5.33-17.76,18.31v16.8c0,9.51-7.71,17.23-17.23,17.23h-8.74V0h24.73v10.11c5.33-6.7,13.94-10.11,24.87-10.11Z" />
    <path class="cls-1"
      d="M95.44,0c-4.16,0-7.88,1.82-10.46,4.69-5.46-2.99-11.72-4.69-18.38-4.69C45.42,0,28.25,17.17,28.25,38.35s17.17,38.35,38.35,38.35c9.66,0,18.47-3.58,25.21-9.47,8.05-7.03,13.13-17.36,13.13-28.88V0h-9.51ZM66.6,53.13c-8.16,0-14.78-6.62-14.78-14.78s6.62-14.78,14.78-14.78,14.78,6.62,14.78,14.78-6.62,14.78-14.78,14.78Z" />
    <path class="cls-1"
      d="M100.38,73.23l2.79,5.66c4.21,8.55.7,18.9-7.86,23.11l-61.4,30.88-4.2-8.53c-3.43-6.96-.57-15.39,6.4-18.82l64.28-32.29Z" />
  </g>
</svg>