<?xml version="1.0" encoding="UTF-8"?><svg id="Layer_2" xmlns="http://www.w3.org/2000/svg" viewBox="0 0 68.7 68.7"><defs><style>.cls-1{fill:#231f20;}.cls-2{fill:#fff;}</style></defs><g id="Layer_2-2"><rect class="cls-2" x="0" y="0" width="68.7" height="68.7" rx="34.35" ry="34.35"/><g id="Layer_1-2"><path class="cls-1" d="M7.13,34.35c0-6.01,4.68-10.46,11.07-10.46s11.07,4.42,11.07,10.46-4.71,10.46-11.07,10.46-11.07-4.45-11.07-10.46ZM24.52,34.35c0-3.85-2.72-6.47-6.32-6.47s-6.32,2.63-6.32,6.47,2.72,6.47,6.32,6.47,6.32-2.63,6.32-6.47Z"/><path class="cls-1" d="M61.57,24.24l-6.61,20.22h-5.02l-4.45-13.69-4.59,13.69h-5l-6.65-20.22h4.85l4.56,14.21,4.77-14.21h4.33l4.62,14.33,4.71-14.33h4.48Z"/></g></g></svg>